<svg xmlns="http://www.w3.org/2000/svg" viewBox="0 0 160.3 54.1"><defs><style>.cls-1{fill:#fff;}.cls-2{fill:#f76b51;}</style></defs><g id="Capa_1" data-name="Capa 1"><path class="cls-1" d="M142.05,41.6a1.25,1.25,0,0,1-.4-.06,1.4,1.4,0,0,1-.3-.15,1,1,0,0,1-.21-.2h0a.22.22,0,0,1,.1-.33l.06,0a.36.36,0,0,1,.38.08.34.34,0,0,0,.09.08.55.55,0,0,0,.29.08.48.48,0,0,0,.26-.06.17.17,0,0,0,.1-.14.19.19,0,0,0-.08-.15.77.77,0,0,0-.28-.11l-.32-.07a.94.94,0,0,1-.22-.07,1.07,1.07,0,0,1-.21-.13.7.7,0,0,1-.15-.19.55.55,0,0,1-.06-.26.6.6,0,0,1,.27-.52.87.87,0,0,1,.29-.14,1.5,1.5,0,0,1,.37,0,1.37,1.37,0,0,1,.58.13l.15.1a.25.25,0,0,1-.07.42h0a.3.3,0,0,1-.33,0l-.09-.05a.47.47,0,0,0-.25-.07.44.44,0,0,0-.23.06.16.16,0,0,0-.1.14.14.14,0,0,0,.08.12.93.93,0,0,0,.22.08l.35.09a1,1,0,0,1,.52.26.66.66,0,0,1,.17.44.55.55,0,0,1-.07.28.76.76,0,0,1-.2.24.87.87,0,0,1-.3.17A1.25,1.25,0,0,1,142.05,41.6Z"/><path class="cls-1" d="M145.3,40.84a.25.25,0,0,1,.07.4,1,1,0,0,1-.23.18,1.11,1.11,0,0,1-.65.18,1.28,1.28,0,0,1-.48-.09,1.12,1.12,0,0,1-.38-.26,1.09,1.09,0,0,1-.25-.38,1.13,1.13,0,0,1-.1-.49,1.18,1.18,0,0,1,.09-.46,1.14,1.14,0,0,1,.25-.39,1.23,1.23,0,0,1,.37-.26,1.28,1.28,0,0,1,1,0,1,1,0,0,1,.35.25,1.11,1.11,0,0,1,.22.38,1.51,1.51,0,0,1,.08.48v.05a.11.11,0,0,0,0,0h0a.16.16,0,0,1-.17.15H144.1c-.12,0-.2,0-.14.14h0a.79.79,0,0,0,.14.17.69.69,0,0,0,.19.1l.21,0a.56.56,0,0,0,.35-.1.27.27,0,0,0,.08-.07.34.34,0,0,1,.37,0Zm-.28-.75a.93.93,0,0,0,0-.13.49.49,0,0,0-.11-.14.46.46,0,0,0-.16-.11.66.66,0,0,0-.59.07.67.67,0,0,0-.2.31Z"/><path class="cls-1" d="M146.92,41.6a1.25,1.25,0,0,1-.4-.06,1.4,1.4,0,0,1-.3-.15,1,1,0,0,1-.21-.2h0a.22.22,0,0,1,.1-.33l.06,0a.36.36,0,0,1,.38.08l.08.08a.61.61,0,0,0,.3.08.48.48,0,0,0,.26-.06.17.17,0,0,0,.1-.14.19.19,0,0,0-.08-.15.77.77,0,0,0-.28-.11l-.32-.07a.94.94,0,0,1-.22-.07,1.07,1.07,0,0,1-.21-.13.7.7,0,0,1-.15-.19.55.55,0,0,1-.06-.26.6.6,0,0,1,.27-.52.87.87,0,0,1,.29-.14,1.5,1.5,0,0,1,.37,0,1.37,1.37,0,0,1,.58.13l.14.09a.26.26,0,0,1-.07.44h0a.31.31,0,0,1-.32,0l-.09-.05a.5.5,0,0,0-.25-.07.44.44,0,0,0-.23.06.16.16,0,0,0-.1.14.14.14,0,0,0,.08.12.93.93,0,0,0,.22.08l.35.09a1,1,0,0,1,.52.26.66.66,0,0,1,.17.44.55.55,0,0,1-.07.28.76.76,0,0,1-.2.24.87.87,0,0,1-.3.17A1.25,1.25,0,0,1,146.92,41.6Z"/><path class="cls-1" d="M149.36,39.17a1.3,1.3,0,0,1,.49.09,1.39,1.39,0,0,1,.38.25,1.3,1.3,0,0,1,.25.39,1.28,1.28,0,0,1,.09.48,1.3,1.3,0,0,1-.09.49,1.14,1.14,0,0,1-.25.38,1.22,1.22,0,0,1-.38.26,1.3,1.3,0,0,1-.49.09,1.21,1.21,0,0,1-.48-.09,1,1,0,0,1-.38-.26,1.16,1.16,0,0,1-.26-.38,1.3,1.3,0,0,1-.09-.49,1.28,1.28,0,0,1,.09-.48,1.33,1.33,0,0,1,.26-.39,1.14,1.14,0,0,1,.38-.25A1.21,1.21,0,0,1,149.36,39.17Zm0,1.86a.62.62,0,0,0,.23,0,.59.59,0,0,0,.19-.13.58.58,0,0,0,.13-.2.78.78,0,0,0,.05-.28.76.76,0,0,0-.05-.27.58.58,0,0,0-.13-.2.59.59,0,0,0-.19-.13.55.55,0,0,0-.46,0,.59.59,0,0,0-.19.13.58.58,0,0,0-.13.2.76.76,0,0,0-.05.27.78.78,0,0,0,.05.28.58.58,0,0,0,.13.2.59.59,0,0,0,.19.13A.62.62,0,0,0,149.36,41Z"/><path class="cls-1" d="M152.24,39.76h-.17a.46.46,0,0,0-.23,0,.52.52,0,0,0-.28.34.75.75,0,0,0,0,.26v.84a.28.28,0,0,1-.28.28h0a.33.33,0,0,1-.33-.33V39.45a.2.2,0,0,1,.2-.2h.17a.2.2,0,0,1,.2.2v.11h0a.72.72,0,0,1,.11-.15.61.61,0,0,1,.16-.12,1,1,0,0,1,.18-.09.69.69,0,0,1,.2,0,.66.66,0,0,1,.21,0h0a.16.16,0,0,1,.1.2C152.42,39.81,152.24,39.76,152.24,39.76Z"/><path class="cls-1" d="M153.14,38.94a.4.4,0,0,1-.15,0,.33.33,0,0,1-.21-.21.39.39,0,0,1,0-.3.33.33,0,0,1,.21-.21l.15,0a.41.41,0,0,1,.28.11.41.41,0,0,1,0,.56A.41.41,0,0,1,153.14,38.94Zm-.3,2.28V39.58a.33.33,0,0,1,.33-.33h0a.28.28,0,0,1,.28.28v1.69a.3.3,0,0,1-.31.3h0A.29.29,0,0,1,152.84,41.22Z"/><path class="cls-1" d="M154.9,41.6a1.18,1.18,0,0,1-.39-.06,1.05,1.05,0,0,1-.3-.15,1.07,1.07,0,0,1-.22-.2h0a.21.21,0,0,1,.09-.33l.14-.06a.23.23,0,0,1,.27.08.43.43,0,0,0,.12.11.6.6,0,0,0,.29.08.51.51,0,0,0,.27-.06.16.16,0,0,0,0-.29.83.83,0,0,0-.29-.11l-.32-.07a1.11,1.11,0,0,1-.22-.07,1.37,1.37,0,0,1-.2-.13.58.58,0,0,1-.16-.19.55.55,0,0,1-.06-.26.61.61,0,0,1,.08-.3.57.57,0,0,1,.19-.22.92.92,0,0,1,.3-.14,1.36,1.36,0,0,1,.36,0,1.34,1.34,0,0,1,.58.13.72.72,0,0,1,.2.14.23.23,0,0,1-.08.37l-.1,0a.21.21,0,0,1-.25-.05.26.26,0,0,0-.11-.07.45.45,0,0,0-.25-.07.4.4,0,0,0-.22.06.15.15,0,0,0-.1.14.12.12,0,0,0,.08.12.79.79,0,0,0,.22.08l.35.09a1,1,0,0,1,.52.26.65.65,0,0,1,.16.44.55.55,0,0,1-.07.28.72.72,0,0,1-.19.24,1,1,0,0,1-.31.17A1.25,1.25,0,0,1,154.9,41.6Z"/><path class="cls-1" d="M157.67,41.33a.2.2,0,0,1-.17.24h0a1.12,1.12,0,0,1-.27,0,.78.78,0,0,1-.31-.06.51.51,0,0,1-.23-.15.82.82,0,0,1-.22-.6v-1h-.17a.23.23,0,0,1-.23-.23v-.07a.23.23,0,0,1,.23-.22h.17v-.47a.23.23,0,0,1,.23-.23h.15a.23.23,0,0,1,.23.23v.47h.33a.22.22,0,0,1,.23.22v.07a.23.23,0,0,1-.23.23h-.33v.91a.77.77,0,0,0,0,.15.25.25,0,0,0,.25.19h.06a.16.16,0,0,1,.15,0A.39.39,0,0,1,157.67,41.33Z"/><path class="cls-1" d="M140.71,41.44a.1.1,0,0,1-.11.1h-.26a.09.09,0,0,1-.09-.1v-.22s0,0,0,0a1,1,0,0,1-.71.33,1.22,1.22,0,1,1,1.21-1.28A10.85,10.85,0,0,1,140.71,41.44Zm-.48-1a.73.73,0,0,0-.82-.82.74.74,0,0,0-.62.63.73.73,0,0,0,1.44.19Z"/><path class="cls-1" d="M140.6,41.59h-.26a.16.16,0,0,1-.15-.14v-.13a1.09,1.09,0,0,1-.68.27,1.27,1.27,0,1,1,1.26-1.33,11.41,11.41,0,0,1,0,1.18A.15.15,0,0,1,140.6,41.59Zm-.37-.43h0a.06.06,0,0,1,0,.06v.22s0,.05,0,.05h.26a.06.06,0,0,0,.06-.05h0a10.9,10.9,0,0,0,0-1.17,1.16,1.16,0,1,0-1.16,1.22.88.88,0,0,0,.66-.31Zm0,.07Zm-.68-.13a.78.78,0,1,1,.55-1.32.76.76,0,0,1,.22.64.78.78,0,0,1-.67.67Zm0-1.45h-.09a.68.68,0,0,0-.58.58.69.69,0,0,0,.2.56.64.64,0,0,0,.56.19.67.67,0,0,0,.58-.58h0a.68.68,0,0,0-.19-.56A.67.67,0,0,0,139.51,39.65Z"/><path class="cls-1" d="M160.23,41.49a.09.09,0,0,1-.1.1h-.26a.1.1,0,0,1-.1-.1v-.21s0,0,0,0a1,1,0,0,1-.71.32,1.22,1.22,0,1,1,1.21-1.27A8.36,8.36,0,0,1,160.23,41.49Zm-.48-1a.72.72,0,1,0-.62.62A.72.72,0,0,0,159.75,40.47Z"/><path class="cls-1" d="M160.13,41.64h-.26a.15.15,0,0,1-.15-.14v-.13a1,1,0,0,1-.68.27,1.27,1.27,0,0,1,0-2.53,1.26,1.26,0,0,1,1.26,1.2,11.41,11.41,0,0,1,0,1.18A.15.15,0,0,1,160.13,41.64Zm-.38-.43h0a.07.07,0,0,1,0,.07v.21a0,0,0,0,0,.05,0h.26a0,0,0,0,0,.05,0h0a10.9,10.9,0,0,0,0-1.17A1.16,1.16,0,1,0,159,41.54a.94.94,0,0,0,.67-.3A.05.05,0,0,1,159.75,41.21Zm0,.07Zm-.67-.13a.75.75,0,0,1-.55-.23.77.77,0,0,1-.22-.65.77.77,0,0,1,1.31-.44.77.77,0,0,1-.45,1.31Zm0-1.45h-.09a.66.66,0,0,0-.57.58.67.67,0,0,0,.75.75.67.67,0,0,0,.58-.58h0a.65.65,0,0,0-.19-.56A.67.67,0,0,0,159,39.7Z"/></g><g id="Capa_3" data-name="Capa 3"><path class="cls-2" d="M137.19,38.88a.27.27,0,0,1,0,.42,1,1,0,0,1-.29.13l-.31.09c-.18.07-.2.17-.08.32a2.23,2.23,0,0,1,.52.94,1.73,1.73,0,0,1-.71,1.85,1.45,1.45,0,0,1-.65.28,2.58,2.58,0,0,1-.29,0,3,3,0,0,1-1.06-.22,4.56,4.56,0,0,1-1.15-.62,2.73,2.73,0,0,1-1-1.33,2.92,2.92,0,0,1-.15-.65,3,3,0,0,1,0-.31,2.87,2.87,0,0,1,.59-1.73A2.78,2.78,0,0,1,134.29,37a3,3,0,0,1,.42,0h.21a.17.17,0,0,1,.19.16.17.17,0,0,1-.17.21l-.54.07a2.29,2.29,0,0,0-1.12.53,2.5,2.5,0,0,0-.32,3.5l.1.09a.28.28,0,0,0,.46-.13.75.75,0,0,0,0-.26c0-.16,0-.33.05-.5a1.43,1.43,0,0,1,1.12-1.28.83.83,0,0,0,.41-.2.68.68,0,0,0,.21-.45,2.48,2.48,0,0,1,0-.27.4.4,0,0,1,.3-.31.61.61,0,0,1,.19,0l.81.13c.08,0,.12,0,.13.09a.15.15,0,0,1-.08.17l-.12.06a.12.12,0,0,0-.05.09s0,.05.07.06a.26.26,0,0,0,.15,0,.25.25,0,0,1,.19,0C137,38.78,137.12,38.82,137.19,38.88ZM136.34,42a7.85,7.85,0,0,0,0-.92.94.94,0,0,0-.94-.91.95.95,0,1,0,0,1.9.75.75,0,0,0,.55-.25s0,0,0,0V42a.08.08,0,0,0,.08.07h.21A.08.08,0,0,0,136.34,42Z"/><path class="cls-2" d="M135.32,40.59a.57.57,0,0,1,.64.64.58.58,0,0,1-.49.49.57.57,0,0,1-.15-1.13Z"/></g></svg>